<?xml version="1.0" encoding="UTF-8" standalone="no"?>
<!-- Created with Inkscape (http://www.inkscape.org/) -->

<svg
   width="3.0269778in"
   height="0.41445899in"
   viewBox="0 0 76.885236 10.527258"
   version="1.1"
   id="svg5"
   inkscape:version="1.1.2 (0a00cf5339, 2022-02-04)"
   sodipodi:docname="logo_plain-white.svg"
   xmlns:inkscape="http://www.inkscape.org/namespaces/inkscape"
   xmlns:sodipodi="http://sodipodi.sourceforge.net/DTD/sodipodi-0.dtd"
   xmlns="http://www.w3.org/2000/svg"
   xmlns:svg="http://www.w3.org/2000/svg">
  <sodipodi:namedview
     id="namedview7"
     pagecolor="#ffffff"
     bordercolor="#000000"
     borderopacity="1"
     inkscape:pageshadow="0"
     inkscape:pageopacity="0"
     inkscape:pagecheckerboard="true"
     inkscape:document-units="mm"
     showgrid="false"
     units="in"
     borderlayer="false"
     showguides="true"
     inkscape:guide-bbox="true"
     inkscape:snap-global="false"
     inkscape:zoom="2.8284271"
     inkscape:cx="143.18912"
     inkscape:cy="5.6568543"
     inkscape:window-width="1920"
     inkscape:window-height="1028"
     inkscape:window-x="0"
     inkscape:window-y="0"
     inkscape:window-maximized="1"
     inkscape:current-layer="g180256"
     fit-margin-top="0"
     fit-margin-left="0"
     fit-margin-right="0"
     fit-margin-bottom="0">
    <sodipodi:guide
       position="45.849503,81.369137"
       orientation="0,-1"
       id="guide157720" />
  </sodipodi:namedview>
  <defs
     id="defs2">
    <rect
       x="324"
       y="0"
       width="198"
       height="81"
       id="rect88693" />
    <rect
       x="177.52095"
       y="109.78269"
       width="206.55164"
       height="60.397163"
       id="rect30157" />
    <rect
       x="72.076172"
       y="48.050781"
       width="738.1134"
       height="258.94034"
       id="rect2585" />
    <rect
       x="324"
       y="0"
       width="198"
       height="81"
       id="rect88693-5" />
    <rect
       x="324"
       y="0"
       width="198"
       height="81"
       id="rect88693-4" />
    <rect
       x="324"
       y="0"
       width="198"
       height="81"
       id="rect88693-4-3" />
    <rect
       x="324"
       y="0"
       width="198"
       height="81"
       id="rect88693-4-3-8" />
    <rect
       x="324"
       y="0"
       width="198"
       height="81"
       id="rect88693-4-3-8-8" />
    <rect
       x="324"
       y="0"
       width="198"
       height="81"
       id="rect88693-4-3-8-8-6" />
    <rect
       x="324"
       y="0"
       width="198"
       height="81"
       id="rect88693-4-3-8-8-6-3" />
    <rect
       x="324"
       y="0"
       width="198"
       height="81"
       id="rect88693-4-3-8-8-6-3-6" />
    <rect
       x="324"
       y="0"
       width="198"
       height="81"
       id="rect88693-4-3-8-8-6-3-6-0" />
    <rect
       x="324"
       y="0"
       width="198"
       height="81"
       id="rect88693-4-3-4" />
  </defs>
  <g
     inkscape:label="Layer 1"
     inkscape:groupmode="layer"
     id="layer1"
     style="display:inline"
     transform="translate(-14.486592,-71.590231)">
    <g
       id="g86806" />
  </g>
  <g
     inkscape:groupmode="layer"
     id="layer3"
     inkscape:label="tildes"
     style="display:inline"
     transform="translate(-14.486592,-71.590231)">
    <g
       id="g180256"
       inkscape:export-filename="C:\Users\jutt\Dropbox\Projects\ccWebsiteDesign\logo_white.png"
       inkscape:export-xdpi="95.959999"
       inkscape:export-ydpi="95.959999">
      <path
         id="rect53323-6"
         style="display:inline;fill:#00255f;stroke-width:0.0494546"
         d="M 91.371826,72.95218 H 90.585825"
         sodipodi:nodetypes="cc"
         inkscape:export-filename="C:\Users\jutt\Dropbox\Projects\ccWebsiteDesign\logo_font35.png"
         inkscape:export-xdpi="95.959999"
         inkscape:export-ydpi="95.959999" />
      <path
         id="rect82559"
         style="display:inline;fill:#00255f;stroke-width:0.0950567"
         d="m 91.371827,82.11749 h -0.783"
         sodipodi:nodetypes="cc"
         inkscape:export-filename="C:\Users\jutt\Dropbox\Projects\ccWebsiteDesign\logo_font35.png"
         inkscape:export-xdpi="95.959999"
         inkscape:export-ydpi="95.959999" />
      <path
         id="rect53323-6-5"
         style="display:inline;fill:#00255f;stroke-width:0.0493576"
         d="M 15.526841,72.957222 H 14.739089"
         sodipodi:nodetypes="cc"
         inkscape:export-filename="C:\Users\jutt\Dropbox\Projects\ccWebsiteDesign\logo_font35.png"
         inkscape:export-xdpi="95.959999"
         inkscape:export-ydpi="95.959999" />
      <path
         id="rect53323-6-9-9"
         style="display:inline;fill:#00255f;stroke-width:0.0929831"
         d="m 15.522871,81.985837 h -0.783"
         sodipodi:nodetypes="cc"
         inkscape:export-filename="C:\Users\jutt\Dropbox\Projects\ccWebsiteDesign\logo_font35.png"
         inkscape:export-xdpi="95.959999"
         inkscape:export-ydpi="95.959999" />
      <g
         aria-label="Coded"
         transform="matrix(0.26458333,0,0,0.26458333,-1.351526,57.740891)"
         id="text2583"
         style="font-size:40px;line-height:1.25;font-family:BentonSansExtraComp;-inkscape-font-specification:BentonSansExtraComp;letter-spacing:-1px;white-space:pre;shape-inside:url(#rect2585);display:inline;fill:#ffffff">
        <path
           d="m 96.255859,67.7925 -6.542968,0.410156 q -0.136719,-5.644531 -4.394532,-5.644531 -4.882812,0 -4.882812,8.691406 0,5.019532 1.328125,6.816407 1.328125,1.777343 3.710937,1.777343 3.867188,0 4.726563,-5.039062 l 6.054687,0.371094 q -0.585937,4.785156 -3.574218,7.285156 -2.96875,2.480469 -7.285157,2.480469 -5.292968,0 -8.613281,-3.652344 -3.300781,-3.652344 -3.300781,-10.097656 0,-6.035157 3.203125,-9.882813 3.203125,-3.847656 8.75,-3.847656 9.609375,0 10.820312,10.332031 z"
           style="font-family:'Franklin Gothic Demi';-inkscape-font-specification:'Franklin Gothic Demi';fill:#ffffff"
           id="path187400" />
        <path
           d="m 106.75977,64.394063 q 4.51171,0 7.03125,2.949218 2.53906,2.949219 2.53906,7.382813 0,4.375 -2.63672,7.304687 -2.61719,2.910157 -6.97266,2.910157 -4.21875,0 -6.757809,-2.890625 -2.519532,-2.890625 -2.519532,-7.421875 0,-3.144532 1.132813,-5.332032 1.152344,-2.207031 3.144528,-3.554687 1.99219,-1.347656 5.03907,-1.347656 z m 0.15625,3.808593 q -1.66016,0 -2.5,1.289063 -0.83985,1.269531 -0.83985,5.078125 0,3.496094 0.80078,5.019531 0.80078,1.523438 2.5,1.523438 1.48438,0 2.40235,-1.289063 0.91797,-1.308594 0.91797,-4.960937 0,-3.886719 -0.82032,-5.273438 -0.80078,-1.386719 -2.46093,-1.386719 z"
           style="font-family:'Franklin Gothic Demi';-inkscape-font-specification:'Franklin Gothic Demi';fill:#ffffff"
           id="path187402" />
        <path
           d="m 135.74023,57.870625 v 26.660156 h -5.37109 v -3.085937 q -1.99219,3.496094 -5.42969,3.496094 -3.26172,0 -5.15625,-2.65625 -1.875,-2.675782 -1.875,-7.402344 0,-4.921875 1.875,-7.695313 1.89453,-2.792968 5.46875,-2.792968 3.14453,0 4.84375,2.480468 v -9.003906 z m -5.64453,15.195313 q 0,-4.648438 -2.8125,-4.648438 -3.35937,0 -3.35937,6.5625 0,5.839844 3.14453,5.839844 1.21094,0 2.10937,-1.054688 0.91797,-1.054687 0.91797,-3.007812 z"
           style="font-family:'Franklin Gothic Demi';-inkscape-font-specification:'Franklin Gothic Demi';fill:#ffffff"
           id="path187404" />
        <path
           d="m 157.2793,75.644063 h -12.69532 q -0.0195,0.527343 -0.0195,0.917968 0,2.109375 1.11328,3.183594 1.13282,1.074219 2.69532,1.074219 2.91015,0 3.49609,-3.105469 l 5.27344,0.390625 q -2.20703,6.835938 -8.96485,6.835938 -2.94921,0 -5.01953,-1.171875 -2.05078,-1.191407 -3.39843,-3.457032 -1.32813,-2.265625 -1.32813,-5.429687 0,-4.707031 2.67578,-7.597656 2.69531,-2.890625 6.91406,-2.890625 3.8086,0 6.52344,2.695312 2.73438,2.675781 2.73438,8.554688 z m -12.71485,-3.378907 h 7.01172 q -0.27344,-4.0625 -3.33984,-4.0625 -3.28125,0 -3.67188,4.0625 z"
           style="font-family:'Franklin Gothic Demi';-inkscape-font-specification:'Franklin Gothic Demi';fill:#ffffff"
           id="path187406" />
        <path
           d="m 176.70898,57.870625 v 26.660156 h -5.37109 v -3.085937 q -1.99219,3.496094 -5.42969,3.496094 -3.26172,0 -5.15625,-2.65625 -1.875,-2.675782 -1.875,-7.402344 0,-4.921875 1.875,-7.695313 1.89453,-2.792968 5.46875,-2.792968 3.14453,0 4.84375,2.480468 v -9.003906 z m -5.64453,15.195313 q 0,-4.648438 -2.8125,-4.648438 -3.35937,0 -3.35937,6.5625 0,5.839844 3.14453,5.839844 1.21094,0 2.10937,-1.054688 0.91797,-1.054687 0.91797,-3.007812 z"
           style="font-family:'Franklin Gothic Demi';-inkscape-font-specification:'Franklin Gothic Demi';fill:#ffffff"
           id="path187408" />
      </g>
      <g
         aria-label="Container"
         transform="matrix(0.26458333,0,0,0.26458333,-0.789931,41.401283)"
         id="text30155"
         style="font-size:40px;line-height:1.25;font-family:'Franklin Gothic Demi Cond';-inkscape-font-specification:'Franklin Gothic Demi Cond';letter-spacing:-1.83px;word-spacing:-4.08px;white-space:pre;shape-inside:url(#rect30157);display:inline;fill:#ffffff">
        <path
           d="m 195.35352,136.99001 4.45312,0.48828 q -0.42969,4.00391 -3.10547,6.60156 -2.65625,2.57813 -6.99219,2.57813 -3.65234,0 -5.9375,-1.83594 -2.26562,-1.83594 -3.49609,-4.98047 -1.23047,-3.14453 -1.23047,-6.93359 0,-6.09375 2.89063,-9.90235 2.89062,-3.82812 7.94922,-3.82812 3.96484,0 6.60156,2.44141 2.63672,2.4414 3.32031,6.99218 l -4.45312,0.46875 q -1.23047,-6.03515 -5.42969,-6.03515 -2.69531,0 -4.19922,2.51953 -1.48438,2.5 -1.48438,7.26562 0,4.84375 1.60157,7.32422 1.60156,2.46094 4.23828,2.46094 2.10937,0 3.59375,-1.66016 1.48437,-1.66015 1.67969,-3.96484 z"
           style="font-family:'Franklin Gothic Medium';-inkscape-font-specification:'Franklin Gothic Medium, ';fill:#ffffff"
           id="path187411" />
        <path
           d="m 209.24617,146.65798 q -4.375,0 -6.67969,-3.14453 -2.30468,-3.14453 -2.30468,-7.20703 0,-4.375 2.53906,-7.28516 2.55859,-2.91016 6.73828,-2.91016 3.96484,0 6.50391,2.83203 2.55859,2.83204 2.55859,7.36329 0,4.66796 -2.65625,7.51953 -2.63672,2.83203 -6.69922,2.83203 z m 0.15625,-3.67188 q 4.49219,0 4.49219,-6.69922 0,-3.02734 -1.07422,-4.76562 -1.07422,-1.75781 -3.30078,-1.75781 -2.30469,0 -3.41797,1.8164 -1.11328,1.79688 -1.11328,4.78516 0,3.22266 1.17187,4.92187 1.19141,1.69922 3.24219,1.69922 z"
           style="font-family:'Franklin Gothic Medium';-inkscape-font-specification:'Franklin Gothic Medium, ';fill:#ffffff"
           id="path187413" />
        <path
           d="m 237.1818,146.24782 h -4.45313 V 133.9236 q 0,-1.95312 -0.89844,-2.92968 -0.89843,-0.9961 -2.16796,-0.9961 -1.73829,0 -3.04688,1.52344 -1.30859,1.52344 -1.30859,4.58984 v 10.13672 h -4.45313 v -19.72656 h 4.0625 v 4.57031 q 2.12891,-4.98047 5.97656,-4.98047 2.59766,0 4.4336,1.64063 1.85547,1.64062 1.85547,5.76172 z"
           style="font-family:'Franklin Gothic Medium';-inkscape-font-specification:'Franklin Gothic Medium, ';fill:#ffffff"
           id="path187415" />
        <path
           d="m 249.82445,142.77126 v 3.47656 q -1.99219,0.42969 -3.08594,0.42969 -1.79687,0 -3.08593,-0.70313 -1.28907,-0.72265 -1.89453,-1.95312 -0.58594,-1.25 -0.58594,-3.82813 v -10.21484 h -2.46094 v -3.45703 h 2.71484 l 0.41016,-5.13672 3.65234,-0.33203 v 5.46875 h 3.96485 v 3.45703 h -3.96485 v 9.62891 q 0,1.85547 0.66407,2.53906 0.68359,0.66406 2.55859,0.66406 0.52734,0 1.11328,-0.0391 z"
           style="font-family:'Franklin Gothic Medium';-inkscape-font-specification:'Franklin Gothic Medium, ';fill:#ffffff"
           id="path187417" />
        <path
           d="m 268.61945,146.24782 h -4.23828 q -0.5664,-1.79687 -0.68359,-3.98437 -1.77735,4.39453 -6.67969,4.39453 -2.94922,0 -4.74609,-1.71875 -1.77735,-1.73828 -1.77735,-4.35547 0,-6.79688 11.9336,-6.79688 0.46875,0 1.26953,0.0195 V 132.322 q 0,-3.06641 -4.17969,-3.06641 -4.0625,0 -4.60937,3.06641 l -3.78907,-0.56641 q 0.3125,-2.46093 2.53907,-4.04296 2.22656,-1.60157 6.44531,-1.60157 2.28515,0 3.73047,0.39063 1.44531,0.37109 2.4414,1.28906 0.9961,0.89844 1.36719,1.97266 0.39063,1.05468 0.39063,3.59375 v 8.90625 q 0,1.93359 0.58593,3.98437 z m -4.92187,-10.03906 q -8.63281,0 -8.63281,4.12109 0,1.23047 0.85937,2.10938 0.87891,0.85937 2.63672,0.85937 2.53906,0 3.82812,-1.60156 1.3086,-1.62109 1.3086,-3.67187 z"
           style="font-family:'Franklin Gothic Medium';-inkscape-font-specification:'Franklin Gothic Medium, ';fill:#ffffff"
           id="path187419" />
        <path
           d="m 275.96914,124.21657 h -4.45313 v -4.6289 h 4.45313 z m 0,22.03125 h -4.45313 v -19.72656 h 4.45313 z"
           style="font-family:'Franklin Gothic Medium';-inkscape-font-specification:'Franklin Gothic Medium, ';fill:#ffffff"
           id="path187421" />
        <path
           d="M 295.81882,146.24782 H 291.3657 V 133.9236 q 0,-1.95312 -0.89844,-2.92968 -0.89844,-0.9961 -2.16797,-0.9961 -1.73828,0 -3.04687,1.52344 -1.3086,1.52344 -1.3086,4.58984 v 10.13672 h -4.45312 v -19.72656 h 4.0625 v 4.57031 q 2.12891,-4.98047 5.97656,-4.98047 2.59766,0 4.4336,1.64063 1.85546,1.64062 1.85546,5.76172 z"
           style="font-family:'Franklin Gothic Medium';-inkscape-font-specification:'Franklin Gothic Medium, ';fill:#ffffff"
           id="path187423" />
        <path
           d="m 311.85992,139.95876 4.02344,0.54687 q -0.78125,2.67579 -3.04687,4.41407 -2.26563,1.73828 -5.6836,1.73828 -4.10156,0 -6.60156,-2.75391 -2.5,-2.7539 -2.5,-7.46094 0,-4.47265 2.51953,-7.40234 2.51953,-2.92969 6.83594,-2.92969 4.21875,0 6.52344,2.89063 2.30468,2.89062 2.30468,7.42187 l -0.0195,0.50782 h -13.53515 q 0,2.01171 0.37109,3.22265 0.39063,1.21094 1.52344,2.10938 1.13281,0.89843 2.83203,0.89843 3.30078,0 4.45312,-3.20312 z m -0.27343,-5.89844 q -0.0195,-2.1289 -1.28907,-3.47656 -1.25,-1.34766 -3.10546,-1.34766 -1.83594,0 -3.06641,1.26953 -1.23047,1.25 -1.44531,3.55469 z"
           style="font-family:'Franklin Gothic Medium';-inkscape-font-specification:'Franklin Gothic Medium, ';fill:#ffffff"
           id="path187425" />
        <path
           d="m 322.92055,146.24782 h -4.45313 v -19.72656 h 4.02344 v 4.70703 q 0.85937,-2.75391 2.36328,-4.02344 1.50391,-1.26953 3.08594,-1.26953 0.21484,0 0.58594,0.0195 v 4.78516 q -3.39844,0 -4.51172,2.16797 -1.09375,2.16797 -1.09375,4.19922 z"
           style="font-family:'Franklin Gothic Medium';-inkscape-font-specification:'Franklin Gothic Medium, ';fill:#ffffff"
           id="path187427" />
      </g>
      <g
         aria-label="}"
         transform="matrix(-0.26458333,0,0,-0.26458333,103.12356,84.916875)"
         id="text88691-9-1"
         style="font-size:46.6667px;line-height:1.25;white-space:pre;shape-inside:url(#rect88693-4-3);display:inline;fill:#ffffff">
        <path
           d="m 332.0892,30.885983 q -2.8711,-1.253256 -2.8711,-5.263676 v -7.519536 q 0,-2.438153 -0.86588,-3.304039 -0.8431,-0.888672 -3.41797,-0.911459 v -2.415366 l 0.77474,-0.02279 q 3.82812,0 5.2181,1.572267 1.38997,1.54948 1.38997,5.081384 v 7.519536 q 0,2.00521 0.61524,2.916669 0.61523,0.911459 2.07357,1.298829 v 2.255861 q -1.27605,0.31901 -1.98243,1.207683 -0.70638,0.865886 -0.70638,2.848309 v 8.089198 q 0,2.962242 -1.38997,4.534509 -1.36719,1.595053 -5.01303,1.595053 -0.31901,0 -0.97981,-0.02279 v -2.415366 q 2.55208,-0.06836 3.41797,-0.934245 0.86588,-0.8431 0.86588,-3.098961 v -7.88412 q 0,-1.617839 0.47852,-2.962241 0.47851,-1.344402 2.39258,-2.164715 z"
           style="font-family:'Franklin Gothic Book';-inkscape-font-specification:'Franklin Gothic Book, ';fill:#ffffff"
           id="path187430" />
      </g>
      <g
         aria-label="}"
         transform="matrix(0.26458333,0,0,0.26458333,0.8124931,68.612204)"
         id="text88691-9-1-1"
         style="font-size:46.6667px;line-height:1.25;white-space:pre;shape-inside:url(#rect88693-4-3-4);display:inline;fill:#ffffff">
        <path
           d="m 332.0892,30.885983 q -2.8711,-1.253256 -2.8711,-5.263676 v -7.519536 q 0,-2.438153 -0.86588,-3.304039 -0.8431,-0.888672 -3.41797,-0.911459 v -2.415366 l 0.77474,-0.02279 q 3.82812,0 5.2181,1.572267 1.38997,1.54948 1.38997,5.081384 v 7.519536 q 0,2.00521 0.61524,2.916669 0.61523,0.911459 2.07357,1.298829 v 2.255861 q -1.27605,0.31901 -1.98243,1.207683 -0.70638,0.865886 -0.70638,2.848309 v 8.089198 q 0,2.962242 -1.38997,4.534509 -1.36719,1.595053 -5.01303,1.595053 -0.31901,0 -0.97981,-0.02279 v -2.415366 q 2.55208,-0.06836 3.41797,-0.934245 0.86588,-0.8431 0.86588,-3.098961 v -7.88412 q 0,-1.617839 0.47852,-2.962241 0.47851,-1.344402 2.39258,-2.164715 z"
           style="font-family:'Franklin Gothic Book';-inkscape-font-specification:'Franklin Gothic Book, ';fill:#ffffff"
           id="path187433" />
      </g>
    </g>
  </g>
  <g
     inkscape:groupmode="layer"
     id="layer2"
     inkscape:label="Logo Box"
     style="display:none"
     transform="translate(-14.486592,-71.590231)">
    <path
       id="rect53323"
       style="fill:#00255f;stroke-width:0.270914"
       d="m 81.857403,11.206466 0.01485,0.778535 H 5.23 L 5.2290833,11.111409 5.2279425,2.0214304 5.227385,1.2092021 h 2.544 V 1.992202 l -1.7539325,0.016826 -1.625e-4,9.102381 18.373273,0.09059 h 19.160563 19.160562 l 18.368111,-0.02477 -0.0042,-9.1660937 -1.769488,-0.023976 v -0.783 h 2.554 l -0.0083,0.8111106 z"
       sodipodi:nodetypes="cccccccccccccccccccc" />
  </g>
</svg>
